<svg xmlns="http://www.w3.org/2000/svg" viewBox="0 0 900 750">
  <!-- Background and title -->
  <rect width="900" height="750" fill="#f8f9fa" />
  <text x="450" y="40" font-family="Arial" font-size="24" text-anchor="middle" font-weight="bold">Clean Architecture Decision Diagram</text>
  
  <!-- Main decision flow -->
  <g>
    <!-- Start node -->
    <rect x="390" y="80" width="120" height="60" rx="15" fill="#4CAF50" />
    <text x="450" y="115" font-family="Arial" font-size="14" text-anchor="middle" fill="white">Start</text>
    
    <!-- Domain decision -->
    <rect x="340" y="180" width="220" height="80" rx="10" fill="#2196F3" />
    <text x="450" y="210" font-family="Arial" font-size="14" text-anchor="middle" fill="white">Is it core business logic</text>
    <text x="450" y="230" font-family="Arial" font-size="14" text-anchor="middle" fill="white">independent of frameworks?</text>
    
    <!-- Application decision -->
    <rect x="70" y="300" width="220" height="80" rx="10" fill="#2196F3" />
    <text x="180" y="330" font-family="Arial" font-size="14" text-anchor="middle" fill="white">Does it orchestrate business</text>
    <text x="180" y="350" font-family="Arial" font-size="14" text-anchor="middle" fill="white">rules but not implement them?</text>
    
    <!-- Infrastructure decision -->
    <rect x="340" y="300" width="220" height="80" rx="10" fill="#2196F3" />
    <text x="450" y="330" font-family="Arial" font-size="14" text-anchor="middle" fill="white">Does it interface with external</text>
    <text x="450" y="350" font-family="Arial" font-size="14" text-anchor="middle" fill="white">systems or services?</text>
    
    <!-- Presentation decision -->
    <rect x="610" y="300" width="220" height="80" rx="10" fill="#2196F3" />
    <text x="720" y="330" font-family="Arial" font-size="14" text-anchor="middle" fill="white">Is it related to UI, user</text>
    <text x="720" y="350" font-family="Arial" font-size="14" text-anchor="middle" fill="white">interaction, or rendering?</text>
    
    <!-- Domain subdecision -->
    <rect x="70" y="440" width="220" height="80" rx="10" fill="#9C27B0" />
    <text x="180" y="470" font-family="Arial" font-size="14" text-anchor="middle" fill="white">Is it a core business object</text>
    <text x="180" y="490" font-family="Arial" font-size="14" text-anchor="middle" fill="white">or business rule?</text>
    
    <!-- Application subdecision -->
    <rect x="340" y="440" width="220" height="80" rx="10" fill="#9C27B0" />
    <text x="450" y="470" font-family="Arial" font-size="14" text-anchor="middle" fill="white">Does it coordinate between</text>
    <text x="450" y="490" font-family="Arial" font-size="14" text-anchor="middle" fill="white">domain and infrastructure?</text>
    
    <!-- Infrastructure subdecision -->
    <rect x="610" y="440" width="220" height="80" rx="10" fill="#9C27B0" />
    <text x="720" y="470" font-family="Arial" font-size="14" text-anchor="middle" fill="white">Does it implement interfaces</text>
    <text x="720" y="490" font-family="Arial" font-size="14" text-anchor="middle" fill="white">defined by inner layers?</text>
    
    <!-- Final decision boxes -->
    <rect x="20" y="580" width="180" height="60" rx="10" fill="#FFC107" />
    <text x="110" y="615" font-family="Arial" font-size="14" text-anchor="middle">Domain/Entities</text>
    
    <rect x="160" y="580" width="180" height="60" rx="10" fill="#FFC107" />
    <text x="250" y="615" font-family="Arial" font-size="14" text-anchor="middle">Domain/UseCases</text>
    
    <rect x="300" y="580" width="180" height="60" rx="10" fill="#FFC107" />
    <text x="390" y="615" font-family="Arial" font-size="14" text-anchor="middle">Application/Services</text>
    
    <rect x="440" y="580" width="180" height="60" rx="10" fill="#FFC107" />
    <text x="530" y="615" font-family="Arial" font-size="14" text-anchor="middle">Application/Adapters</text>
    
    <rect x="580" y="580" width="180" height="60" rx="10" fill="#FFC107" />
    <text x="670" y="615" font-family="Arial" font-size="14" text-anchor="middle">Infrastructure/API</text>
    
    <rect x="720" y="580" width="180" height="60" rx="10" fill="#FFC107" />
    <text x="810" y="615" font-family="Arial" font-size="14" text-anchor="middle">Presentation/Components</text>
    
    <!-- Shared directory decision -->
    <rect x="340" y="660" width="220" height="60" rx="10" fill="#FF5722" />
    <text x="450" y="690" font-family="Arial" font-size="14" text-anchor="middle">Shared/Utils if used by multiple layers</text>
    
    <!-- Connect nodes with arrows -->
    <!-- Main flow -->
    <line x1="450" y1="140" x2="450" y2="180" stroke="#333" stroke-width="2" />
    <polygon points="450,180 445,170 455,170" fill="#333" />
    
    <line x1="340" y1="220" x2="180" y2="300" stroke="#333" stroke-width="2" />
    <polygon points="180,300 177,290 190,295" fill="#333" />
    <text x="230" y="270" font-family="Arial" font-size="12" text-anchor="middle">No</text>
    
    <line x1="450" y1="260" x2="450" y2="300" stroke="#333" stroke-width="2" />
    <polygon points="450,300 445,290 455,290" fill="#333" />
    <text x="470" y="280" font-family="Arial" font-size="12" text-anchor="middle">No</text>
    
    <line x1="560" y1="220" x2="720" y2="300" stroke="#333" stroke-width="2" />
    <polygon points="720,300 710,295 717,290" fill="#333" />
    <text x="670" y="270" font-family="Arial" font-size="12" text-anchor="middle">No</text>
    
    <!-- Domain path -->
    <line x1="450" y1="260" x2="180" y2="440" stroke="#333" stroke-width="2" />
    <polygon points="180,440 177,430 190,435" fill="#333" />
    <text x="290" y="370" font-family="Arial" font-size="12" text-anchor="middle">Yes</text>
    
    <!-- Application path -->
    <line x1="180" y1="380" x2="180" y2="440" stroke="#333" stroke-width="2" />
    <polygon points="180,440 175,430 185,430" fill="#333" />
    <text x="200" y="410" font-family="Arial" font-size="12" text-anchor="middle">Yes</text>
    
    <!-- Infrastructure path -->
    <line x1="450" y1="380" x2="450" y2="440" stroke="#333" stroke-width="2" />
    <polygon points="450,440 445,430 455,430" fill="#333" />
    <text x="470" y="410" font-family="Arial" font-size="12" text-anchor="middle">Yes</text>
    
    <!-- Presentation path -->
    <line x1="720" y1="380" x2="720" y2="440" stroke="#333" stroke-width="2" />
    <polygon points="720,440 715,430 725,430" fill="#333" />
    <text x="740" y="410" font-family="Arial" font-size="12" text-anchor="middle">Yes</text>
    
    <!-- Final connections -->
    <line x1="110" y1="520" x2="110" y2="580" stroke="#333" stroke-width="2" />
    <polygon points="110,580 105,570 115,570" fill="#333" />
    <text x="130" y="550" font-family="Arial" font-size="12" text-anchor="middle">Yes</text>
    
    <line x1="180" y1="520" x2="250" y2="580" stroke="#333" stroke-width="2" />
    <polygon points="250,580 240,575 247,570" fill="#333" />
    <text x="230" y="550" font-family="Arial" font-size="12" text-anchor="middle">No</text>
    
    <line x1="390" y1="520" x2="390" y2="580" stroke="#333" stroke-width="2" />
    <polygon points="390,580 385,570 395,570" fill="#333" />
    <text x="410" y="550" font-family="Arial" font-size="12" text-anchor="middle">Yes</text>
    
    <line x1="450" y1="520" x2="530" y2="580" stroke="#333" stroke-width="2" />
    <polygon points="530,580 520,575 527,570" fill="#333" />
    <text x="500" y="550" font-family="Arial" font-size="12" text-anchor="middle">No</text>
    
    <line x1="670" y1="520" x2="670" y2="580" stroke="#333" stroke-width="2" />
    <polygon points="670,580 665,570 675,570" fill="#333" />
    <text x="690" y="550" font-family="Arial" font-size="12" text-anchor="middle">Yes</text>
    
    <line x1="720" y1="520" x2="810" y2="580" stroke="#333" stroke-width="2" />
    <polygon points="810,580 800,575 807,570" fill="#333" />
    <text x="780" y="550" font-family="Arial" font-size="12" text-anchor="middle">No</text>
    
    <!-- Shared path -->
    <line x1="450" y1="640" x2="450" y2="660" stroke="#333" stroke-width="2" stroke-dasharray="5,5" />
    <polygon points="450,660 445,650 455,650" fill="#333" />
    <text x="530" y="650" font-family="Arial" font-size="12" text-anchor="middle">Consider for any component</text>
  </g>
  
  <!-- Legend -->
  <g transform="translate(20, 20)">
    <rect x="0" y="0" width="15" height="15" fill="#4CAF50" />
    <text x="25" y="12" font-family="Arial" font-size="12">Start</text>
    
    <rect x="0" y="25" width="15" height="15" fill="#2196F3" />
    <text x="25" y="37" font-family="Arial" font-size="12">Main Decision</text>
    
    <rect x="0" y="50" width="15" height="15" fill="#9C27B0" />
    <text x="25" y="62" font-family="Arial" font-size="12">Sub-Decision</text>
    
    <rect x="0" y="75" width="15" height="15" fill="#FFC107" />
    <text x="25" y="87" font-family="Arial" font-size="12">Placement</text>
    
    <rect x="0" y="100" width="15" height="15" fill="#FF5722" />
    <text x="25" y="112" font-family="Arial" font-size="12">Special Case</text>
  </g>
</svg>
