<svg width="133" height="32" viewBox="0 0 133 32" fill="none" xmlns="http://www.w3.org/2000/svg">
<path d="M0.241211 16.1211V16.035C0.241211 7.3547 6.70924 0.2421 15.9149 0.2421C21.5159 0.2421 24.9011 2.2051 27.8099 4.9964L24.3792 8.9654C21.9467 6.6958 19.3429 5.1711 15.8694 5.1711C10.0945 5.1711 5.83952 9.9711 5.83952 15.9463V16.0323C5.83952 22.0101 10.0516 26.8505 15.8694 26.8505C19.6025 26.8505 21.9895 25.3661 24.596 22.9244L28.0267 26.4148C24.8583 29.7305 21.3847 31.8253 15.6981 31.8253C6.84037 31.8253 0.241211 24.8874 0.241211 16.1211Z" fill="black"/>
<path d="M98.6182 0.7665H103.96V13.4616H118.458V0.7665H123.8V31.3036H118.458V18.4337H103.96V31.3036H98.6182V0.7665Z" fill="black"/>
<path d="M60.7178 16.1211V16.035C60.7178 7.4407 67.3169 0.2421 76.651 0.2421C85.9851 0.2421 92.4959 7.352 92.4959 15.9463V16.0323C92.4959 24.6266 85.8968 31.8253 76.5627 31.8253C67.2286 31.8253 60.7178 24.7153 60.7178 16.1211ZM86.8976 16.1211V16.035C86.8976 10.1029 82.5999 5.1711 76.5654 5.1711C70.5309 5.1711 66.3188 10.0142 66.3188 15.9463V16.0323C66.3188 21.9644 70.6165 26.8505 76.651 26.8505C82.6855 26.8505 86.8976 22.0505 86.8976 16.1184V16.1211Z" fill="black"/>
<path d="M53.8375 17.8744L59.6767 31.3009H54.0329L49.0447 19.5013C50.5834 18.8344 52.1864 18.2912 53.8375 17.8717V17.8744ZM95.2602 31.3009H89.7422C83.8976 21.873 73.4905 15.5967 61.6221 15.5967C58.7507 15.5967 55.965 15.9678 53.3076 16.6589V16.6643C51.6672 17.0919 50.0723 17.6431 48.5362 18.3073C42.3037 21.0018 37.0586 25.5678 33.5022 31.3009H27.9814L41.3537 0.7638H46.3017L51.3648 12.1924C54.6269 11.2727 58.0657 10.7806 61.6221 10.7806C76.2495 10.7806 88.9393 19.1087 95.2602 31.3009ZM46.6603 13.865L43.7407 6.9567L38.9158 18.3692C41.2948 16.5756 43.8933 15.0589 46.6603 13.8623V13.865Z" fill="black"/>
<path d="M130.048 28.8807V31.3035H129.612V28.1788H130.118L131.239 29.9671L132.355 28.1788H132.802V31.3035H132.366V28.8807L131.213 30.6877L130.054 28.8807H130.048Z" fill="black"/>
<path d="M128.587 28.9049C128.515 28.8027 128.408 28.714 128.269 28.6414C128.014 28.5015 127.602 28.4908 127.378 28.6521C127.174 28.7839 127.155 29.0797 127.343 29.2303C127.431 29.3029 127.535 29.362 127.667 29.3997C127.929 29.4804 128.258 29.5933 128.51 29.717C128.641 29.7815 128.748 29.873 128.833 29.9993C129.066 30.3355 128.981 30.8652 128.654 31.1153C128.132 31.5509 126.992 31.4111 126.652 30.8383L126.968 30.5425C127.233 30.9459 127.923 31.0911 128.314 30.8249C128.544 30.6635 128.552 30.2951 128.309 30.1338C128.188 30.0451 128.041 29.9778 127.873 29.924C127.543 29.8111 127.169 29.7304 126.928 29.4561C126.647 29.1523 126.701 28.5983 127.048 28.3509C127.383 28.0713 128.06 28.0471 128.467 28.2541C128.657 28.3456 128.801 28.4639 128.903 28.6037L128.584 28.9049H128.587Z" fill="black"/>
</svg>
